<svg xmlns="http://www.w3.org/2000/svg" width="500" viewBox="0 0 375 375" height="500" version="1.0"><defs><clipPath id="a"><path d="M96 261h243.75v109H96zm0 0"/></clipPath><clipPath id="b"><path d="M37.5 224H125v151H37.5zm0 0"/></clipPath><clipPath id="c"><path d="M37.5 5H281v109H37.5zm0 0"/></clipPath><clipPath id="d"><path d="M253 0h86.75v151H253zm0 0"/></clipPath></defs><path fill="#50c2ee" d="M232.762 320.648c-.985 0-1.957-.097-2.918-.3l-59.156-12.23a5.761 5.761 0 01-1.047-.313c-.34-.14-.66-.313-.965-.516a5.749 5.749 0 01-.848-.691 5.553 5.553 0 01-.691-.848 5.578 5.578 0 01-.516-.965 5.76 5.76 0 01-.312-1.047 5.366 5.366 0 01-.102-1.09 5.514 5.514 0 01.965-3.09 5.566 5.566 0 011.555-1.523c.308-.2.632-.367.972-.5.34-.137.692-.238 1.051-.305a5.712 5.712 0 012.18.04l59.16 12.23a3.2 3.2 0 001.074.05 3.303 3.303 0 002.543-1.788 12.813 12.813 0 001.129-3.262c.355-1.645.387-3.297.098-4.953a12.911 12.911 0 00-1.766-4.633 11.395 11.395 0 00-3.191-3.39 11.417 11.417 0 00-4.27-1.848l-62.66-12.942a33.084 33.084 0 01-8.961-3.293 32.973 32.973 0 01-7.652-5.71c-36.18-36.063-60.125-21.016-62.704-19.18-.3.21-.613.39-.945.535a5.316 5.316 0 01-1.031.34 5.285 5.285 0 01-1.078.133 5.274 5.274 0 01-1.082-.079 5.694 5.694 0 01-1.047-.289 5.77 5.77 0 01-.969-.488 5.691 5.691 0 01-.86-.668 5.67 5.67 0 01-1.241-1.77 5.316 5.316 0 01-.34-1.03 5.585 5.585 0 01-.055-2.16c.063-.36.16-.708.293-1.048.129-.34.293-.66.488-.968.192-.309.414-.594.668-.856.25-.266.524-.5.82-.71 3.387-2.372 34.32-22.048 76.899 20.39a22.034 22.034 0 005.102 3.808 21.85 21.85 0 005.976 2.196l62.649 12.941a22.455 22.455 0 018.359 3.598 22.321 22.321 0 013.465 2.984 22.206 22.206 0 012.789 3.625 24.085 24.085 0 013.297 8.543c.27 1.516.394 3.043.37 4.582a23.704 23.704 0 01-.503 4.574 24.314 24.314 0 01-2.082 5.989 14.255 14.255 0 01-2.258 3.273 14.234 14.234 0 01-3.066 2.527 14.43 14.43 0 01-3.645 1.594 14.22 14.22 0 01-3.941.531zm0 0"/><g clip-path="url(#a)"><path fill="#50c2ee" d="M219.945 369.793c-1.894 0-3.77-.191-5.625-.578l-74.847-15.465a65.258 65.258 0 00-21.586-.848l-1.856.278c-.652.097-1.3.082-1.945-.055a5.545 5.545 0 01-4.156-3.75l-12.985-41.188a5.824 5.824 0 01-.242-1.07 5.688 5.688 0 01.164-2.176 5.96 5.96 0 01.399-1.023c.168-.324.367-.633.593-.922a5.625 5.625 0 011.668-1.41c.32-.176.657-.32 1.008-.43a5.424 5.424 0 012.172-.234c.363.031.723.101 1.074.207a5.485 5.485 0 011.93 1.023c.285.235.543.493.777.778a5.485 5.485 0 011.02 1.93l11.59 36.769a76.434 76.434 0 0122.613 1.273l74.848 15.485c2.078.433 4.156.465 6.246.093a16.33 16.33 0 005.828-2.246l93.582-58.441a13.1 13.1 0 001.148-.8c.371-.286.727-.59 1.063-.915a13.684 13.684 0 002.559-3.313c.226-.41.43-.827.613-1.257.183-.43.343-.867.48-1.317a13.518 13.518 0 00.617-4.14c0-.465-.027-.934-.074-1.399a14.139 14.139 0 00-.582-2.734 13.386 13.386 0 00-1.117-2.563c-.23-.406-.48-.8-.75-1.183a13.647 13.647 0 00-1.742-2.024 13.584 13.584 0 00-2.098-1.648 13.924 13.924 0 00-2.379-1.215 13.478 13.478 0 00-2.566-.73 13.8 13.8 0 00-2.66-.227 13.957 13.957 0 00-5.2 1.094c-.82.351-1.601.777-2.343 1.277l-.07.047-65.032 42.344a5.827 5.827 0 01-.96.484 5.764 5.764 0 01-2.11.371 5.49 5.49 0 01-1.07-.129 5.577 5.577 0 01-1.024-.328 5.676 5.676 0 01-.941-.523 5.596 5.596 0 01-1.493-1.535 5.294 5.294 0 01-.496-.953 5.333 5.333 0 01-.304-1.036 5.457 5.457 0 01.015-2.14c.07-.356.176-.696.317-1.028a5.465 5.465 0 012.023-2.464l64.992-42.317a24.492 24.492 0 014.223-2.277 24.287 24.287 0 012.254-.824 25.05 25.05 0 012.324-.602c.785-.16 1.578-.285 2.375-.371a24.644 24.644 0 014.797-.055 24.836 24.836 0 0115.039 6.785 25.706 25.706 0 011.652 1.739c.524.61 1.016 1.238 1.48 1.894a24.997 24.997 0 012.477 4.403 24.934 24.934 0 012.074 9.84 24.98 24.98 0 01-1.968 9.847 24.333 24.333 0 01-2.434 4.418 24.308 24.308 0 01-3.281 3.824 24.406 24.406 0 01-3.996 3.078l-93.55 58.426a27.44 27.44 0 01-6.985 3.11 27.235 27.235 0 01-7.567 1.066zm0 0"/></g><g clip-path="url(#b)"><path fill="#50c2ee" d="M83.45 375a5.48 5.48 0 01-1.723-.273 5.589 5.589 0 01-2.781-2.04 5.58 5.58 0 01-.782-1.562L37.816 243.187a5.601 5.601 0 01-.035-3.215c.102-.347.239-.683.407-1.007a5.29 5.29 0 01.593-.906 5.484 5.484 0 012.653-1.817l35.14-11.074c.348-.11.703-.188 1.063-.227a5.47 5.47 0 012.152.191c.352.102.688.235 1.008.403a5.456 5.456 0 011.684 1.352c.234.281.44.578.613.898.176.317.32.649.43.996l40.347 127.946a5.601 5.601 0 01.234 2.148 5.608 5.608 0 01-1.203 2.984 5.67 5.67 0 01-.757.774 5.497 5.497 0 01-1.898 1.04l-35.142 11.073a5.53 5.53 0 01-1.656.254zM50.061 245.14L87.05 362.516l24.578-7.746-36.992-117.372zm0 0"/></g><path fill="#50c2ee" d="M274.574 142.121c-13.504 0-32.012-5.61-53.472-27.004A22.034 22.034 0 00216 111.31a21.85 21.85 0 00-5.977-2.196l-62.648-12.941a22.455 22.455 0 01-8.36-3.598 22.321 22.321 0 01-3.464-2.984 22.206 22.206 0 01-2.79-3.625 24.084 24.084 0 01-3.296-8.543 24.023 24.023 0 01-.371-4.582 23.67 23.67 0 01.504-4.574 24.393 24.393 0 012.113-5.989 14.38 14.38 0 012.766-3.8 14.577 14.577 0 011.808-1.516 14.765 14.765 0 012.035-1.195 14.78 14.78 0 012.203-.844 14.37 14.37 0 017.008-.27l59.156 12.23c.36.071.708.177 1.047.313.34.14.66.313.965.516.305.203.586.434.848.691a5.621 5.621 0 011.207 1.813c.137.34.242.687.312 1.047.07.36.106.722.102 1.09a5.514 5.514 0 01-.965 3.09 5.566 5.566 0 01-1.555 1.523 5.45 5.45 0 01-.972.5c-.34.137-.692.238-1.051.3a5.403 5.403 0 01-1.09.09 5.39 5.39 0 01-1.09-.125l-59.16-12.23a3.285 3.285 0 00-3.613 1.738 12.673 12.673 0 00-1.133 3.262 12.888 12.888 0 00-.098 4.953c.29 1.66.88 3.203 1.766 4.633a11.395 11.395 0 003.191 3.39 11.417 11.417 0 004.27 1.848l62.66 12.942a33.084 33.084 0 018.961 3.293 32.973 32.973 0 017.652 5.71c36.18 36.063 60.125 21.016 62.707 19.18a5.497 5.497 0 013.05-1.008c.365-.011.728.016 1.083.079.36.062.707.16 1.047.289.34.132.664.296.973.488.304.195.59.418.855.668a5.67 5.67 0 011.242 1.77c.149.331.262.675.34 1.03.082.356.125.715.133 1.079.012.363-.016.722-.078 1.082-.063.36-.16.707-.29 1.047-.132.34-.296.66-.487.968a5.27 5.27 0 01-.672.856c-.25.266-.524.5-.82.71-1.704 1.177-10.16 6.614-23.45 6.614zm0 0"/><g clip-path="url(#c)"><path fill="#50c2ee" d="M62.492 113.734a25.154 25.154 0 01-8.652-1.535 25.243 25.243 0 01-3.36-1.527 24.873 24.873 0 01-12.52-17.41 24.682 24.682 0 01-.374-3.676A24.775 24.775 0 0139.71 78.8a25.043 25.043 0 011.746-3.254 25.073 25.073 0 012.207-2.957 24.562 24.562 0 012.621-2.598 24.602 24.602 0 012.98-2.183l93.583-58.426a27.254 27.254 0 014.691-2.344 27.27 27.27 0 015.047-1.41 27.52 27.52 0 015.226-.426c1.754.027 3.493.219 5.211.582l74.848 15.465a65.258 65.258 0 0021.586.848l1.856-.278a5.427 5.427 0 011.945.055 5.545 5.545 0 014.156 3.75l12.984 41.188a5.485 5.485 0 01.2 2.129 5.684 5.684 0 01-.207 1.05 5.684 5.684 0 01-.41.996 5.642 5.642 0 01-.594.895 5.53 5.53 0 01-2.633 1.79 5.593 5.593 0 01-1.05.222 5.433 5.433 0 01-2.133-.18 5.472 5.472 0 01-2.68-1.711 5.474 5.474 0 01-.618-.879 5.285 5.285 0 01-.437-.984l-11.59-36.77c-7.601.7-15.14.274-22.613-1.273l-74.848-15.485a16.314 16.314 0 00-6.246-.093 16.33 16.33 0 00-5.828 2.246L55.129 77.207c-.399.246-.781.516-1.152.8-.368.286-.723.59-1.059.915-.34.32-.66.66-.965 1.016-.305.351-.59.722-.855 1.105a13.843 13.843 0 00-1.352 2.45c-.184.429-.344.866-.48 1.316a13.518 13.518 0 00-.555 2.742c-.047.465-.066.93-.063 1.398 0 .465.028.934.075 1.399a14.139 14.139 0 00.582 2.734c.14.445.304.883.492 1.309.187.43.394.847.625 1.254.23.406.48.8.75 1.183.516.73 1.094 1.406 1.742 2.024a13.584 13.584 0 002.098 1.648 13.598 13.598 0 004.945 1.945c.879.16 1.766.239 2.656.227a14.114 14.114 0 002.657-.297c.875-.184 1.722-.45 2.546-.797.82-.351 1.602-.777 2.344-1.277l.07-.047 65.032-42.344a5.52 5.52 0 01.96-.48 5.327 5.327 0 011.04-.29 5.423 5.423 0 012.14.044c.352.074.692.187 1.024.328.332.144.644.32.941.523a5.596 5.596 0 011.492 1.535c.2.301.364.621.496.953.137.336.239.68.305 1.036a5.457 5.457 0 01-.015 2.14c-.07.356-.176.696-.317 1.028a5.402 5.402 0 01-.508.949c-.199.3-.43.578-.683.832a5.381 5.381 0 01-.832.683l-64.993 42.317a24.448 24.448 0 01-6.593 3.148 24.357 24.357 0 01-7.227 1.078zm0 0"/></g><g clip-path="url(#d)"><path fill="#50c2ee" d="M299.082 150.086a5.506 5.506 0 01-3.27-1.07 5.589 5.589 0 01-1.226-1.239 5.61 5.61 0 01-.781-1.558L253.457 18.273a5.601 5.601 0 01-.234-2.148 5.607 5.607 0 011.203-2.984c.226-.282.48-.54.758-.774a5.497 5.497 0 011.898-1.04L292.222.255a5.529 5.529 0 012.153-.234c.36.03.715.097 1.066.199a5.57 5.57 0 013.73 3.656l40.349 127.938a5.601 5.601 0 01.035 3.215 5.608 5.608 0 01-.407 1.007 5.35 5.35 0 01-.593.906 5.484 5.484 0 01-2.653 1.817l-35.14 11.074a5.44 5.44 0 01-1.68.254zM265.715 20.23l36.992 117.372 24.574-7.743-36.988-117.375zm0 0"/></g><path fill="#50c2ee" d="M188.578 247.152a8.671 8.671 0 01-2.996-.629 8.741 8.741 0 01-2.598-1.617 2061.472 2061.472 0 00-15.03-12.699c-6.04-5.102-12.282-10.371-18.403-15.602-6.328-5.378-12.66-11.535-16.68-20.101-4.445-9.496-4.984-19.828-1.5-29.074a33.28 33.28 0 017.043-11.324 33.384 33.384 0 0110.914-7.664c14.242-6.266 29.809-2.376 39.383 9.636a39.928 39.928 0 015.152-5.379c8.953-7.566 20.102-9.273 32.239-4.937 11.605 4.152 19.207 13.187 21.406 25.449 2.297 12.824-1.414 24.738-10.742 34.437a190.976 190.976 0 01-14.29 13.079c-1.581 1.37-3.226 2.738-4.816 4.132-3.656 3.164-7.383 6.328-10.988 9.446-3.871 3.312-7.914 6.738-11.774 10.132-2.316 2.012-4.46 2.715-6.32 2.715zm-25.414-90.57a23.054 23.054 0 00-9.351 2.027 22.291 22.291 0 00-7.317 5.13 22.408 22.408 0 00-2.75 3.55 22.435 22.435 0 00-1.98 4.031c-2.422 6.442-2.004 13.711 1.172 20.485 3.171 6.77 8.496 11.812 13.843 16.382a3540.32 3540.32 0 0018.356 15.555c4.508 3.793 9.02 7.606 13.535 11.442 3.61-3.168 7.27-6.274 10.824-9.313 3.55-3.039 7.3-6.242 10.918-9.39 1.621-1.41 3.266-2.81 4.91-4.211a180.244 180.244 0 0013.508-12.262c6.863-7.121 9.492-15.492 7.824-24.817-1.504-8.418-6.332-14.132-14.242-16.964-8.324-2.98-15.508-1.977-21.36 2.968a41.426 41.426 0 00-5.5 6.164c-.933 1.184-1.898 2.41-2.94 3.63a5.603 5.603 0 01-2.055 1.504 5.461 5.461 0 01-1.23.359 5.408 5.408 0 01-2.54-.16 5.526 5.526 0 01-3.023-2.266c-.286-.434-.57-.883-.86-1.344-.617-.957-1.25-1.945-1.902-2.863-4.445-6.274-10.914-9.637-17.84-9.637zm0 0"/></svg>