<svg xmlns="http://www.w3.org/2000/svg" width="500" viewBox="0 0 375 375" height="500" version="1.0"><path fill="#50c2ee" d="M257.617 316.75c-39.27 9.047-82.933 9.96-122.851 3v36.332a5.451 5.451 0 01-5.461 5.461h-73.63c-3.01 0-5.464-2.461-5.464-5.461v-67.836c-57.879-38.574-56.356-95.808 2.184-133.375-.817-11.437 6.515-29.5 11.671-42.148 1.54-3.828 2.891-7.121 3.575-9.121 3.425-9.77 11.93-18.918 21.074-24.684-14.586-13.965-14.856-37.188-.559-51.48 14.047-14.075 36.867-14.075 50.93 0 14.023 14.05 14.074 36.792.07 50.867 12.465 7.757 20.38 21.465 20.38 36.504v6.73c22.968-2.082 46.663-1.68 69.347 1.184v-7.914c0-15.051 7.902-28.746 20.355-36.504-14-14.075-13.965-36.817.075-50.868 14.074-14.074 36.878-14.074 50.953 0 14.293 14.293 14.027 37.528-.586 51.481 9.148 5.777 17.636 14.914 21.074 24.684.707 2 2.039 5.293 3.598 9.12 6.246 15.38 15.722 38.723 9.89 48.505 43.883 33.246 48.504 80.222 6.735 116.64a42.197 42.197 0 011.218 10.074v68.153c0 3.011-2.465 5.46-5.465 5.46h-73.636c-3.012 0-5.465-2.46-5.465-5.46V316.75zM90.79 112.953c1-2.84 4.086-4.34 6.926-3.34 2.855 1 4.355 4.086 3.367 6.914l-6.465 18.43c11.344-3.867 23.492-7.05 36.258-9.465v-14.27a5.458 5.458 0 015.465-5.464 5.466 5.466 0 015.465 5.465v12.441c2.23-.344 4.511-.648 6.793-.941v-7.914c0-12.914-7.77-24.403-19.356-29.454-9.535 4.61-20.758 4.758-30.43.403-8.671 4.133-17.816 12.672-20.89 21.441-.926 2.645-2.23 5.88-3.758 9.621-4.988 12.282-12.437 30.625-11.793 36.637.027.023.816.707 1.305 1.926 1.281 3.16 3.148 4.965 5.879 6.488l34.734 17.395c3.55 1.707 6.281.68 8.258-1.66 3.074-3.684 2.293-10.231-2.305-12.512-.137-.063-.27-.149-.402-.223l-27.172-13.598c-2.563-1.144-3.89-4.085-2.941-6.793zm196.535 3.574c-1-2.828.516-5.925 3.344-6.914 2.852-1 5.953.5 6.953 3.34l11.012 31.527c1 2.856-.5 5.954-3.344 6.942a4.25 4.25 0 01-.95.219c-.5.511-1.085.879-1.718 1.172l-24.492 12.253v.028c-5.805 2.89-5.402 12.27.527 14.574a6.03 6.03 0 004.719-.063v-.023l.73-.332 35.137-17.61v-.023c3.73-1.855 4.442-5.023 6.121-6.527 4.137-3.742-10.765-36.11-14.914-47.903-3.047-8.757-12.219-17.308-20.89-21.44-9.672 4.355-20.88 4.206-30.418-.392-11.586 5.036-19.344 16.512-19.344 29.442v9.488c2.281.38 4.539.781 6.793 1.195v-14.27a5.458 5.458 0 015.465-5.464 5.466 5.466 0 015.465 5.465v16.55c13.523 3.098 26.246 7.11 37.878 11.852zM140.598 226.72h1.242v-37.211a5.473 5.473 0 015.465-5.465h17.476a5.466 5.466 0 015.465 5.465v37.21h4.156v-62.124a5.47 5.47 0 015.465-5.465h17.477a5.47 5.47 0 015.465 5.465v62.125h4.16v-72.871a5.455 5.455 0 015.46-5.465h17.454a5.458 5.458 0 015.465 5.465v72.87h1.547c6.355 0 11.515 5.184 11.515 11.512 0 4.88.473 8.782-3.367 12.637-2.086 2.074-4.965 3.38-8.148 3.38h-96.297c-6.356 0-11.516-5.173-11.516-11.505 0-4.89-.473-8.781 3.367-12.633a11.497 11.497 0 018.149-3.39zm12.172 0h6.546v-31.746h-6.546zm32.562 0h6.547v-56.664h-6.547zm32.563 0h6.523v-67.406h-6.523zm19.011 10.926h-96.308l-.586.585c0 .735-.196 4.551.183 4.903.086.11.243.183.403.183h96.308l.574-.586c0-.73.208-4.546-.183-4.902a.5.5 0 00-.39-.183zm19.246 65.382l29.918-25.464c2.293-1.95 5.72-1.672 7.645.609 1.953 2.305 1.683 5.734-.61 7.683l-24.562 20.907v43.855h62.7V287.93c0-11.77-6.587-22.32-16.77-27.723-9.196 4.32-19.977 4.32-29.207-.023-9.086 5.77-13.844 18.027-29.758 27.918-1.988 1.242-4.477 1.035-6.223-.305l-27.574-18.223c-.086-.035-.168-.11-.254-.172-.223-.156-3.637.477-4.781 2.016-.426.57.437 5.035 1.683 5.95l35.012 25.976c1.125.844 2.04.258 2.781-.317zm43.746-97.433c-12.96 0-23.488 10.504-23.488 23.453 0 12.965 10.512 23.476 23.488 23.476 12.965 0 23.48-10.5 23.48-23.476 0-12.95-10.515-23.453-23.48-23.453zm-24.316-.864c13.426-13.44 35.195-13.44 48.648 0 13.454 13.465 13.391 35.38-.046 48.672 5.097 3.598 9.363 8.27 12.437 13.696 21.746-20.403 30.2-47.04 13.488-73.563-5.437-8.613-13.242-16.687-23-24.015l-3.011 1.89-.028-.023-35.523 17.828c-.27.137-.55.293-.867.402-14.368 6.196-28.735-8.523-23.563-23.66 1.524-4.523 4.684-8.426 9.133-10.633v.024l14.234-7.121c-57.066-22.004-132.933-22.7-191.183-2.305l18.832 9.402c11.414 5.707 13.597 21.477 4.683 30.54l-3.734 2.85c-.828.403-4.098 1.77-5.316 1.99-2.258.425-4.293.401-6.563 0l-4.754-1.696-34.734-17.414c-3.098-1.403-5.89-3.88-7.953-6.551-48.075 31.734-51.907 77.004-4.867 111.129 2.695-9.195 8.5-17.23 16.308-22.77-13.441-13.293-13.504-35.195-.027-48.672 13.43-13.43 35.199-13.43 48.652 0 13.524 13.524 13.414 35.489-.246 48.88 8.172 6.757 12.441 15.66 23.223 23.343l24.672-16.281c6.878-4.793 17.28-.356 20.402 4.879 3.867 6.523.82 17.12-4.695 20.879l-32.746 24.28c30.93 4.208 64.296 3.54 94.933-1.925l-30.137-22.355c-5.765-3.938-8.754-15.403-4.293-21.465 3.832-5.246 13.504-8.805 19.993-4.293l24.683 16.281c10.758-7.683 15.024-16.586 23.196-23.344-13.66-13.39-13.747-35.367-.231-48.879zM77.91 260.207c-10.183 5.402-16.77 15.965-16.77 27.734v62.688h62.7v-43.867l-24.563-20.907a5.457 5.457 0 01-.609-7.683 5.433 5.433 0 017.66-.61l30.195 25.711c.73.61 1.743.633 2.477.086l35.04-25.98c1.218-.902 2.07-5.379 1.667-5.961-1.059-1.402-4.402-2.16-4.719-2.04l-27.89 18.419a5.495 5.495 0 01-6.22.305c-15.917-9.891-20.675-22.149-29.773-27.918-9.195 4.343-19.976 4.343-29.195.023zm31.172-47.758c-9.16-9.172-24.027-9.172-33.184 0-9.16 9.172-9.16 24.028 0 33.211 9.157 9.156 24.024 9.156 33.184 0 9.184-9.183 9.184-24.027 0-33.21zM274.789 27.805c-13.879 0-25.086 11.242-25.086 25.097 0 13.856 11.207 25.086 25.086 25.086 13.844 0 25.086-11.218 25.086-25.086 0-13.855-11.242-25.097-25.086-25.097zm-143.426 7.351c-9.793-9.804-25.683-9.804-35.488 0-9.805 9.805-9.805 25.684 0 35.492 9.805 9.805 25.695 9.805 35.488 0 9.809-9.808 9.809-25.687 0-35.492zm0 0"/></svg>