<svg xmlns="http://www.w3.org/2000/svg" width="500" viewBox="0 0 375 375" height="500" version="1.0"><defs><clipPath id="a"><path d="M54.2 3.75h266.25v367.5H54.2zm0 0"/></clipPath></defs><g clip-path="url(#a)"><path fill="#50c2ee" d="M317.129 69.617L253.793 5.93a7.209 7.209 0 00-5.102-2.117H83.011c-15.89 0-28.816 12.925-28.816 28.812v309.75c0 15.887 12.926 28.813 28.817 28.813h208.902c15.887 0 28.813-12.926 28.813-28.813 0-4.422.003-265.816-.008-266.352.066-2.77-1.41-5.14-3.59-6.406zm-61.234-41.144l39.949 40.168h-39.95zm36.02 328.308H83.011c-7.946 0-14.407-6.46-14.407-14.406V32.625c0-7.945 6.461-14.406 14.407-14.406h158.476v57.629a7.205 7.205 0 007.203 7.203h57.63v259.324c0 7.945-6.466 14.406-14.407 14.406zm0 0"/></g><path fill="#50c2ee" d="M133.434 198.305c27.804 0 50.425-22.621 50.425-50.426 0-27.8-22.62-50.422-50.425-50.422-27.801 0-50.422 22.621-50.422 50.422 0 27.805 22.62 50.426 50.422 50.426zm35.293-57.63H140.64V112.59c14.09 2.87 25.214 13.996 28.086 28.086zM126.23 112.59v35.289a7.206 7.206 0 007.204 7.207h35.293c-3.344 16.418-17.899 28.812-35.293 28.812-19.86 0-36.016-16.156-36.016-36.02 0-17.39 12.394-31.944 28.812-35.288zm158.48 215.379H270.3v-64.832a7.203 7.203 0 00-7.202-7.203h-28.813a7.205 7.205 0 00-7.203 7.203v64.832h-14.406V227.12a7.207 7.207 0 00-7.207-7.207h-28.813a7.206 7.206 0 00-7.203 7.207v100.85h-14.406v-64.832a7.205 7.205 0 00-7.203-7.203h-28.817a7.205 7.205 0 00-7.203 7.203v64.832H97.418V227.12a7.206 7.206 0 00-7.203-7.207 7.206 7.206 0 00-7.203 7.207v108.05a7.205 7.205 0 007.203 7.204H284.71a7.205 7.205 0 007.203-7.203 7.205 7.205 0 00-7.203-7.203zm-158.48 0v-57.63h14.41v57.63zm57.63 0v-93.645h14.406v93.645zm57.628 0v-57.63h14.407v57.63zM90.215 83.05h129.664a7.205 7.205 0 007.203-7.202v-36.02a7.205 7.205 0 00-7.203-7.203H90.215a7.205 7.205 0 00-7.203 7.203v36.02a7.205 7.205 0 007.203 7.203zm7.203-36.019h115.258v21.61H97.418zM284.71 97.457h-64.83a7.2 7.2 0 00-7.203 7.203 7.203 7.203 0 007.203 7.203h64.832a7.203 7.203 0 100-14.406zm0 28.813h-64.83a7.203 7.203 0 00-7.203 7.203 7.2 7.2 0 007.203 7.203h64.832a7.203 7.203 0 100-14.406zm0 28.816h-64.83a7.2 7.2 0 00-7.203 7.203 7.203 7.203 0 007.203 7.203h64.832a7.203 7.203 0 100-14.406zm0 28.812h-64.83a7.203 7.203 0 00-7.203 7.204 7.203 7.203 0 007.203 7.203h64.832a7.205 7.205 0 007.203-7.203 7.205 7.205 0 00-7.203-7.204zm0 0"/></svg>