<svg xmlns="http://www.w3.org/2000/svg" width="500" viewBox="0 0 375 375" height="500" version="1.0"><defs><clipPath id="a"><path d="M31.727 4.234h311.25v366.75H31.727zm0 0"/></clipPath></defs><g clip-path="url(#a)"><path fill="#50c2ee" d="M268.516 300.969a6.437 6.437 0 012.37-8.785 6.437 6.437 0 018.786 2.37l11.734 20.325 38.012 3.203-38.504-66.695c-.258.27-.52.539-.781.804-6.344 6.344-14.219 10.309-22.48 11.891-8.473 1.621-17.356.719-25.395-2.715-4.082-1.742-6.934-1.957-8.91-.945-2.239 1.144-4.145 3.976-5.926 8.058a43.626 43.626 0 01-7.586 11.75l43.8 75.86 16.239-34.527c.078-.168.16-.333.246-.497zM174.71 162.21a8.094 8.094 0 01-2.871-2.274l-14.274-17.574-.011-.011c-.93-1.141-2.266-1.797-3.668-1.942-1.41-.148-2.864.227-4.004 1.153l-.016.011c-1.137.93-1.797 2.27-1.941 3.668-.149 1.41.226 2.867 1.152 4.008l24.867 30.602c.926 1.136 2.262 1.8 3.664 1.949 1.414.152 2.871-.211 4.012-1.125l.05-.074.114-.09.078-.051c.184-.137.348-.274.477-.402v.004a5.79 5.79 0 00.43-.47l43.296-53.292.004-.004c.926-1.14 1.297-2.594 1.153-4.004-.145-1.402-.809-2.746-1.953-3.676l-.004-.004c-1.141-.925-2.594-1.297-4.004-1.152-1.403.144-2.746.812-3.68 1.96l-32.902 40.49h.004a8.213 8.213 0 01-2.875 2.292l.004.008a8.137 8.137 0 01-3.563.797 8.11 8.11 0 01-3.54-.797zm3.539-14.816l29.336-36.106c3.176-3.906 7.684-6.164 12.363-6.652 4.668-.485 9.535.804 13.45 3.984l.003.004c3.907 3.176 6.16 7.68 6.645 12.355.48 4.668-.805 9.54-3.984 13.45l-.004.004-43.297 53.293a18.058 18.058 0 01-1.461 1.597l-.024.028c-.523.503-1.05.957-1.57 1.355l.004.004-.113.09-.016-.024a18.306 18.306 0 01-13.336 3.848c-4.656-.496-9.133-2.754-12.297-6.645l-24.867-30.601c-3.18-3.91-4.465-8.781-3.98-13.45.484-4.679 2.742-9.187 6.648-12.363l.027-.02.352-.276.101-.083h.004c3.825-2.898 8.489-4.066 12.965-3.601 4.68.48 9.188 2.738 12.36 6.644l.015.02zm47.02-28.778l-.004-.004zm.796 7.684l.004-.004zM84.238 251.387L45.73 318.082l38.016-3.203 11.73-20.324a6.437 6.437 0 018.786-2.371 6.435 6.435 0 012.375 8.785L95.03 321.066c.086.164.168.329.246.497l16.235 34.527 43.8-75.86a43.626 43.626 0 01-7.585-11.75c-1.782-4.082-3.688-6.914-5.926-8.058-1.973-1.012-4.828-.797-8.906.945-8.043 3.434-16.926 4.336-25.399 2.715-8.258-1.582-16.133-5.547-22.476-11.89a37.68 37.68 0 01-.782-.805zm83.09 22.664a30.946 30.946 0 01-7.789-10.723c-2.934-6.73-6.664-11.7-11.879-14.367-5.476-2.8-11.898-2.84-19.816.543-5.664 2.418-11.934 3.05-17.922 1.902a30.283 30.283 0 01-15.766-8.355 30.257 30.257 0 01-8.277-15.301 30.985 30.985 0 011.488-17.555c2.68-6.828 3.559-12.972 1.758-18.539-1.89-5.855-6.41-10.433-14.414-13.644-.106-.04-.211-.078-.313-.114a30.629 30.629 0 01-13.718-11.144c-3.293-4.856-5.22-10.754-5.22-17.121 0-6.371 1.927-12.266 5.22-17.121a30.616 30.616 0 0114.004-11.258l.023-.012.004.012c8.004-3.215 12.523-7.79 14.414-13.645 1.8-5.562.922-11.707-1.758-18.543a30.97 30.97 0 01-1.488-17.55 30.257 30.257 0 018.277-15.301 30.29 30.29 0 0115.766-8.36 30.91 30.91 0 0117.922 1.907c7.918 3.383 14.344 3.343 19.816.543 5.215-2.668 8.945-7.637 11.88-14.371a30.964 30.964 0 0111.343-13.446 30.316 30.316 0 0116.691-4.968 30.287 30.287 0 0116.692 4.972 30.901 30.901 0 0111.343 13.442c2.938 6.73 6.668 11.703 11.88 14.37 5.476 2.801 11.898 2.84 19.816-.542 5.664-2.418 11.933-3.055 17.925-1.907a30.264 30.264 0 0115.762 8.36 30.228 30.228 0 018.278 15.3 30.968 30.968 0 01-1.485 17.551c-2.68 6.832-3.558 12.98-1.762 18.543 1.891 5.856 6.41 10.43 14.418 13.645.102.039.207.078.313.113a30.618 30.618 0 0113.715 11.145c3.297 4.855 5.219 10.75 5.219 17.12 0 6.368-1.922 12.266-5.22 17.122a30.616 30.616 0 01-14.003 11.258l-.02.008-.004-.008c-8.007 3.21-12.527 7.789-14.418 13.644-1.796 5.567-.921 11.711 1.758 18.54a30.985 30.985 0 011.489 17.554 30.257 30.257 0 01-8.278 15.3 30.257 30.257 0 01-15.762 8.356c-5.992 1.149-12.261.516-17.925-1.902-7.918-3.383-14.34-3.344-19.817-.543-5.21 2.668-8.941 7.637-11.879 14.367a30.882 30.882 0 01-7.789 10.719 6.619 6.619 0 00-.558.484 30.287 30.287 0 01-19.688 7.215 30.287 30.287 0 01-19.691-7.219 6.477 6.477 0 00-.555-.476zm-1.918 14.476l-43.914 76.059a11.621 11.621 0 01-4.469 4.402 11.573 11.573 0 01-6.093 1.403c-2.211-.09-4.25-.758-5.98-1.91-1.74-1.157-3.15-2.782-4.095-4.79l-16.867-35.87-39.558 3.331a11.593 11.593 0 01-6.145-1.16 11.651 11.651 0 01-4.672-4.215 11.606 11.606 0 01-1.816-6.015 11.601 11.601 0 011.308-5.559 5.84 5.84 0 01.27-.512l42.848-74.218a43.754 43.754 0 01-2.97-9.149c-1.706-8.254-1.007-16.918 2.09-24.824 1.63-4.148 2.286-7.504 1.512-9.906-.68-2.11-2.843-3.973-6.945-5.617a4.9 4.9 0 01-.332-.145 43.52 43.52 0 01-19.555-15.86c-4.73-6.972-7.488-15.359-7.488-24.34 0-8.984 2.758-17.366 7.488-24.343a43.547 43.547 0 0119.891-15.992l-.004-.012c4.102-1.644 6.266-3.508 6.945-5.613.774-2.402.118-5.758-1.511-9.906a43.852 43.852 0 01-2.09-24.825c1.664-8.05 5.586-15.691 11.762-21.867 6.343-6.344 14.218-10.308 22.476-11.89a43.8 43.8 0 0125.399 2.714c4.078 1.743 6.933 1.957 8.906.946 2.238-1.145 4.144-3.977 5.926-8.059 3.398-7.793 9.035-14.414 16.09-19.047 6.863-4.511 15.035-7.144 23.757-7.144 8.723 0 16.895 2.633 23.762 7.144 7.05 4.633 12.687 11.258 16.086 19.047 1.781 4.082 3.687 6.914 5.926 8.059 1.976 1.011 4.828.797 8.91-.946a43.784 43.784 0 0125.394-2.714c8.262 1.582 16.137 5.546 22.48 11.89 6.173 6.176 10.095 13.817 11.759 21.867 1.707 8.254 1.011 16.914-2.09 24.825-1.63 4.148-2.285 7.504-1.508 9.906.68 2.105 2.84 3.969 6.941 5.613.114.047.227.094.332.145a43.571 43.571 0 0119.555 15.86c4.73 6.976 7.492 15.358 7.492 24.343 0 8.98-2.761 17.367-7.492 24.34a43.51 43.51 0 01-19.89 15.996l.003.008c-4.101 1.648-6.261 3.511-6.941 5.617-.777 2.402-.121 5.758 1.504 9.906 3.105 7.91 3.8 16.57 2.094 24.824a43.68 43.68 0 01-2.97 9.149l42.852 74.218c.098.168.188.34.266.512a11.512 11.512 0 011.309 5.559 11.612 11.612 0 01-1.813 6.015 11.626 11.626 0 01-4.676 4.211 11.544 11.544 0 01-6.144 1.164l-39.559-3.332-16.867 35.871c-.941 2.008-2.351 3.633-4.09 4.79-1.73 1.152-3.773 1.82-5.984 1.91a11.581 11.581 0 01-6.094-1.403c-1.812-.996-3.344-2.492-4.457-4.406l-.008.004-43.918-76.059c-6.52 3.899-14.105 6.141-22.164 6.141-8.054 0-15.644-2.242-22.164-6.14zm22.164-225.023c23.785 0 45.317 9.64 60.903 25.226 15.585 15.586 25.226 37.122 25.226 60.903s-9.64 45.316-25.226 60.902c-15.586 15.586-37.122 25.227-60.903 25.227s-45.316-9.64-60.902-25.227c-15.586-15.586-25.227-37.12-25.227-60.902 0-23.781 9.64-45.317 25.227-60.903 15.586-15.585 37.121-25.226 60.902-25.226zm51.766 34.363c13.246 13.25 21.437 31.551 21.437 51.766s-8.191 38.52-21.437 51.762c-13.25 13.25-31.55 21.44-51.766 21.44-20.215 0-38.515-8.19-51.762-21.44-13.246-13.243-21.44-31.547-21.44-51.762s8.194-38.52 21.44-51.766C149.06 84.625 167.36 76.43 187.575 76.43s38.52 8.195 51.766 21.437zm0 0" fill-rule="evenodd"/></g></svg>