<svg xmlns="http://www.w3.org/2000/svg" width="500" viewBox="0 0 375 375" height="500" version="1.0"><defs><clipPath id="a"><path d="M241 169h125.984v206H241zm0 0"/></clipPath><clipPath id="b"><path d="M7.734 211H124v98H7.734zm0 0"/></clipPath></defs><path fill="#50c2ee" d="M246.488 238.977c-1.304 0-2.613-.489-3.511-1.551-1.875-1.957-1.793-5.063.164-6.938l40.988-38.945c1.957-1.879 5.062-1.797 6.937.16 1.88 1.961 1.797 5.063-.16 6.942l-40.988 38.945c-.98.898-2.203 1.387-3.43 1.387zm0 0"/><g clip-path="url(#a)"><path fill="#50c2ee" d="M362.262 375H246.488a4.911 4.911 0 01-4.898-4.898 4.911 4.911 0 014.898-4.899h110.875c-.164-18.371-.898-82.953-2.367-110.633-1.55-29.226-27.105-40.496-50.863-48.66-22.781-7.836-29.801-16-27.926-32.25.328-2.695 2.777-4.57 5.39-4.328 2.696.328 4.653 2.777 4.329 5.39-.899 7.758-1.633 13.962 21.39 21.883 12.653 4.407 25.961 9.633 36.657 18.043 12.902 10.122 19.922 23.43 20.738 39.352 1.715 32.578 2.45 115.203 2.45 116.02 0 1.304-.49 2.53-1.388 3.511-.898.98-2.203 1.469-3.511 1.469zm0 0"/></g><path fill="#50c2ee" d="M320.133 373.531c-2.692 0-4.899-2.207-4.899-4.898v-83.606c0-2.695 2.207-4.898 4.899-4.898a4.911 4.911 0 014.898 4.898v83.606c0 2.691-2.203 4.898-4.898 4.898zM285.11 250.328a4.41 4.41 0 01-2.044-.492l-31.68-14.86c-2.448-1.14-3.507-4.081-2.366-6.53 1.144-2.45 4.082-3.512 6.53-2.368l26.864 12.574 14.531-40.578c.899-2.531 3.758-3.84 6.29-2.941 2.53.898 3.835 3.758 2.937 6.289l-16.328 45.719c-.492 1.308-1.469 2.37-2.696 2.859-.734.164-1.386.328-2.039.328zm0 0"/><path fill="#50c2ee" d="M246.488 238.977c-1.222 0-2.449-.407-3.347-1.387l-40.985-38.945c-1.96-1.88-2.043-4.98-.164-6.942 1.88-1.957 4.98-2.039 6.942-.16l40.984 38.945c1.96 1.875 2.043 4.98.164 6.938-.98 1.062-2.285 1.55-3.594 1.55zm0 136.023h-35.351a4.911 4.911 0 01-4.899-4.898 4.911 4.911 0 014.899-4.899h35.351a4.911 4.911 0 014.899 4.899 4.911 4.911 0 01-4.899 4.898zm0 0"/><path fill="#50c2ee" d="M135.45 246.164a5.12 5.12 0 01-1.552-.246c-2.53-.816-4-3.594-3.101-6.207 8.98-27.27 38.781-37.555 54.785-43.106 1.387-.492 2.773-.98 4.082-1.472 18.86-7.266 18.207-13.063 17.309-20.41-.328-2.696 1.632-5.145 4.328-5.391 2.691-.324 5.144 1.633 5.387 4.328 1.468 13.063-1.875 22.29-23.512 30.7-1.39.57-2.86 1.062-4.41 1.632-19.922 6.942-41.805 16.004-48.743 36.906-.57 1.957-2.449 3.266-4.574 3.266zm0 0"/><path fill="#50c2ee" d="M207.871 250.328a4.828 4.828 0 01-1.879-.41 4.471 4.471 0 01-2.695-2.856l-16.328-45.722c-.899-2.531.41-5.39 2.941-6.29 2.531-.898 5.387.41 6.285 2.942l14.532 40.578 26.863-12.574c2.45-1.144 5.387-.082 6.531 2.367 1.145 2.45.082 5.39-2.367 6.532l-31.68 14.859c-.816.41-1.55.574-2.203.574zm38.617-64.422c-28.25 0-49.64-16.98-58.867-46.699-13.469-4-19.758-16.25-20.98-26.129-1.227-9.715 1.875-17.797 7.918-20.656 2.859-1.305 6.859-1.875 12.086.816.242-1.715.57-3.508 1.058-5.304 2.207-8.082 8.004-18.29 23.352-21.149 4.492-.816 8.898-1.469 13.144-2.039 19.27-2.777 35.926-5.144 49.07-24.902 1.223-1.88 3.594-2.614 5.633-1.961 2.125.734 3.43 2.777 3.348 4.98-1.063 15.512 3.348 25.555 12.82 28.985 7.43 2.695 10.04 13.144 10.938 21.636 5.39-2.937 9.555-2.367 12.41-1.062 6.043 2.86 9.144 10.941 7.922 20.656-1.227 9.8-7.512 22.129-20.985 26.129-9.308 29.719-30.617 46.7-58.867 46.7zm-67.031-84.746c-.324 0-.57.082-.734.164-1.47.653-3.184 4.489-2.45 10.531.899 7.266 5.715 16.493 16.086 18.454 1.793.324 3.266 1.714 3.836 3.507 7.676 27.27 25.473 42.293 50.293 42.293s42.621-15.023 50.293-42.293a4.843 4.843 0 013.84-3.507c10.367-1.961 15.106-11.188 16.082-18.454.738-6.043-.976-9.878-2.45-10.53-1.058-.493-4.163.081-9.144 5.468-1.386 1.469-3.507 1.96-5.386 1.144a4.8 4.8 0 01-3.02-4.656c.16-10.285-2.207-21.308-4.82-22.289-6.531-2.367-16.41-8.57-18.86-25.308-14.125 13.96-30.941 16.328-47.273 18.695a369.84 369.84 0 00-12.734 1.96c-19.922 3.673-16.657 25.31-16.493 26.208.325 2.125-.738 4.246-2.695 5.144-1.96.98-4.246.57-5.715-1.062-4.328-4.328-7.187-5.469-8.656-5.469zm0 0"/><path fill="#50c2ee" d="M311.645 99.852c-.739 0-1.391-.16-2.125-.489-2.45-1.144-3.512-4.082-2.286-6.531.082-.246 11.184-24.004 3.594-41.477-3.348-7.675-10.043-13.144-20.004-16.246-1.144-.328-2.125-1.144-2.777-2.207-9.797-16.574-25.8-21.554-37.395-22.695-20.246-2.043-42.699 5.715-54.703 18.86-20.164 22.124-9.797 63.113-9.633 63.519.653 2.613-.898 5.309-3.511 5.96-2.614.653-5.305-.898-5.961-3.51-.489-1.88-11.836-46.458 11.922-72.583C202.973 6.86 228.28-1.96 251.715.41c18.941 1.957 34.453 11.102 43.844 25.88 11.757 4.081 19.921 11.187 24.25 21.148 9.386 21.554-3.184 48.414-3.676 49.558-.899 1.797-2.695 2.856-4.488 2.856zM211.137 375h-72.34c-1.957 0-3.754-1.145-4.488-3.02l-25.473-59.93c-1.063-2.448.078-5.308 2.527-6.366l64.094-28.086a4.486 4.486 0 013.836 0c1.227.488 2.207 1.55 2.695 2.773l33.719 87.934c.574 1.468.41 3.183-.57 4.492-.899 1.469-2.367 2.203-4 2.203zm-69.075-9.797h61.973L174.723 288.7l-54.95 24.086zm0 0"/><path fill="#50c2ee" d="M167.863 289.926c-2.12 0-4.082-1.39-4.652-3.512-7.922-26.289-23.516-42.375-44.008-45.23-1.797-.246-3.594-.493-5.387-.735-16.086-2.289-38.05-5.472-39.843 1.875-1.715 7.024 0 8.164 10.12 11.352.575.16 1.227.406 1.798.57 9.39 3.02 26.453 5.145 26.617 5.227 2.695.324 4.574 2.773 4.246 5.468-.328 2.696-2.777 4.57-5.469 4.247-.738-.083-18.207-2.286-28.414-5.633-.57-.164-1.144-.41-1.797-.575-8.734-2.773-20.656-6.53-16.656-22.94 1.797-7.595 8.738-11.677 20.574-12.083 8.82-.328 19.68 1.223 30.211 2.773a1295 1295 0 015.305.735c24.496 3.43 42.949 21.965 52.012 52.09.816 2.613-.657 5.308-3.266 6.125a3.81 3.81 0 01-1.39.246zm0 0"/><g clip-path="url(#b)"><path fill="#50c2ee" d="M118.223 308.867c-1.797 0-3.59-1.062-4.407-2.777-3.27-6.938-5.554-8-10.859-9.227-1.96-.406-4.82-.734-8.086-1.058-7.101-.735-16.734-1.715-28.004-5.227-13.715-4.328-28.332-21.555-40.004-35.433-3.27-3.918-6.37-7.594-8.984-10.372-12.246-13.144-13.063-19.921-3.59-29.066 10.86-10.45 22.453 1.145 28.656 7.352 1.387 1.386 2.942 3.02 4.575 4.652 8.082 8.492 19.183 20.086 31.921 24.41 2.532.899 3.918 3.676 3.02 6.207-.898 2.531-3.672 3.918-6.203 3.02-15.024-5.141-27.024-17.715-35.844-26.942-1.55-1.633-3.02-3.183-4.406-4.492-11.024-11.02-13.067-8.98-14.942-7.184-2.941 2.86-3.511 3.918-3.43 4.817.083 1.387 1.47 4.328 7.348 10.613 2.774 3.024 5.961 6.778 9.309 10.695 10.285 12.25 24.492 28.985 35.434 32.415 10.203 3.265 18.941 4.082 25.96 4.816 3.594.328 6.696.656 9.31 1.226 7.757 1.715 12.82 4.57 17.554 14.614 1.144 2.449.082 5.39-2.367 6.531a4.92 4.92 0 01-1.961.41zm0 0"/></g><path fill="#50c2ee" d="M87.2 206.402a4.97 4.97 0 01-4.41-2.695c-1.228-2.45-.247-5.39 2.12-6.613 32.824-16.656 53.07-41.805 49.235-61.07-1.227-6.208-6.368-18.618-17.063-20.903-8.984-1.96-19.352 3.594-25.883 13.715a4.89 4.89 0 01-6.777 1.473 4.894 4.894 0 01-1.469-6.778c8.734-13.554 23.27-20.82 36.168-17.965 15.594 3.348 22.781 19.598 24.574 28.579 4.739 23.921-17.144 52.742-54.457 71.683-.57.41-1.304.574-2.039.574zm0 0"/><path fill="#50c2ee" d="M87.2 206.402a4.437 4.437 0 01-2.208-.574c-37.312-18.941-59.191-47.762-54.457-71.683 1.797-9.063 8.98-25.23 24.574-28.579 12.985-2.773 27.516 4.41 36.172 17.965a4.894 4.894 0 01-1.469 6.778 4.89 4.89 0 01-6.777-1.473c-6.531-10.121-16.902-15.676-25.883-13.715-10.613 2.285-15.757 14.695-17.062 20.902-3.84 19.266 16.492 44.332 49.23 61.07 2.45 1.223 3.348 4.165 2.125 6.614-.738 1.715-2.453 2.695-4.246 2.695zm0 0"/></svg>