<svg xmlns="http://www.w3.org/2000/svg" width="500" viewBox="0 0 375 375" height="500" version="1.0"><defs><clipPath id="a"><path d="M0 23.672h283v327.75H0zm0 0"/></clipPath><clipPath id="b"><path d="M178 259h196v92.422H178zm0 0"/></clipPath></defs><g clip-path="url(#a)"><path fill="#50c2ee" d="M141.488 335.402c-3.078 0-8.148-2.765-16.547-7.343l-2.636-1.438C90.297 309.176 15.852 260.395 15.852 184.285v-73.922c0-14.343.207-23.293 3.082-26.531 3.035-3.41 12.546-5.23 27.843-7.828 29.383-4.973 53.493-13.484 73.711-26.02l1-.629c10.473-6.503 16.239-10.093 20.008-10.093 3.77 0 9.535 3.582 20.008 10.093l1.004.63c20.207 12.535 44.312 21.042 73.695 26.019 15.3 2.598 24.813 4.418 27.844 7.828 2.879 3.238 3.086 12.188 3.086 26.531v9.414a7.848 7.848 0 00.601 3.016c.2.48.442.934.727 1.363.289.43.617.828.98 1.196a7.982 7.982 0 002.559 1.71c.48.196.973.348 1.48.446a7.819 7.819 0 003.075 0 7.79 7.79 0 002.843-1.176c.43-.289.829-.613 1.196-.98a8.23 8.23 0 00.98-1.196 7.73 7.73 0 00.727-1.363 7.848 7.848 0 00.602-3.016v-9.414c0-38.863-3.708-43.062-44.067-49.906C211.5 55.84 189.25 48.02 170.812 36.602l-1-.63c-12.93-8.027-20.058-12.452-28.324-12.452-8.265 0-15.386 4.414-28.32 12.453l-.996.629C93.727 48.039 71.488 55.84 44.145 60.472 3.805 67.302.082 71.5.082 110.364v73.922c0 84.563 80.195 137.39 114.68 156.184l2.633 1.43c10.953 5.992 16.988 9.273 24.093 9.273a7.888 7.888 0 004.383-1.332 7.54 7.54 0 001.192-.98 7.54 7.54 0 00.98-1.192 7.888 7.888 0 00.73-7.398 7.888 7.888 0 00-1.71-2.56 7.76 7.76 0 00-2.555-1.706 7.888 7.888 0 00-3.02-.602zm0 0"/></g><path fill="#50c2ee" d="M200.902 152.508l-64.277 58.687-32.223-29.433a7.723 7.723 0 00-1.238-.922 7.85 7.85 0 00-2.89-1.047 7.85 7.85 0 00-4.532.656c-.469.219-.91.485-1.328.79a7.987 7.987 0 00-2.074 2.273 7.872 7.872 0 00-.664 1.394 7.86 7.86 0 001.062 7.356c.305.414.649.8 1.032 1.148l37.539 34.297a7.979 7.979 0 002.464 1.531 7.876 7.876 0 002.852.531 7.887 7.887 0 002.852-.53 7.75 7.75 0 001.304-.653c.414-.258.801-.55 1.164-.879l69.582-63.555c.368-.355.696-.738.985-1.156a7.87 7.87 0 00.75-1.32c.203-.465.363-.946.476-1.442a7.853 7.853 0 00.098-3.023 7.867 7.867 0 00-1.957-4.05 7.737 7.737 0 00-1.129-1.016 7.576 7.576 0 00-1.3-.786 7.976 7.976 0 00-1.427-.52 7.904 7.904 0 00-3.02-.18 7.956 7.956 0 00-2.862.974c-.442.25-.852.543-1.239.875zm29.911 49.715a45.547 45.547 0 00.87 8.836 44.2 44.2 0 001.083 4.312 45.223 45.223 0 003.394 8.207 46.44 46.44 0 002.29 3.813 46.308 46.308 0 002.644 3.57 44.19 44.19 0 002.988 3.293 44.19 44.19 0 003.293 2.988 45.356 45.356 0 007.383 4.934 44.661 44.661 0 004.02 1.898 45.173 45.173 0 008.5 2.578c1.452.293 2.917.508 4.394.657 1.476.144 2.957.214 4.441.214 1.485 0 2.965-.07 4.442-.214a46.45 46.45 0 004.398-.653 45.787 45.787 0 008.496-2.578 45.33 45.33 0 0020.332-16.684 45.398 45.398 0 002.285-3.816 45.44 45.44 0 001.903-4.016 45.224 45.224 0 001.496-4.187 45.191 45.191 0 001.734-17.59 45.22 45.22 0 00-5.133-16.914 45.42 45.42 0 00-4.934-7.387 45.745 45.745 0 00-2.984-3.293 45.745 45.745 0 00-3.293-2.984 46.093 46.093 0 00-3.57-2.648 45.398 45.398 0 00-3.816-2.286 44.865 44.865 0 00-8.203-3.398 45.043 45.043 0 00-8.71-1.734 45.547 45.547 0 00-4.439-.22 46.83 46.83 0 00-4.441.224 46.194 46.194 0 00-4.395.656c-1.453.293-2.89.652-4.308 1.082a45.917 45.917 0 00-4.184 1.5 46.043 46.043 0 00-4.02 1.902 46.307 46.307 0 00-7.379 4.934 46.682 46.682 0 00-3.292 2.984 45.356 45.356 0 00-9.82 14.691 43.68 43.68 0 00-1.5 4.184 44.254 44.254 0 00-1.083 4.309 43.822 43.822 0 00-.656 4.394 45.574 45.574 0 00-.226 4.442zm74.832 0c0 .964-.047 1.93-.141 2.894a29.669 29.669 0 01-1.129 5.676 29.487 29.487 0 01-5.434 10.164 28.976 28.976 0 01-1.945 2.148 28.976 28.976 0 01-2.148 1.946 29.331 29.331 0 01-7.434 4.457c-.89.37-1.8.695-2.726.976a30.21 30.21 0 01-2.813.707 29.48 29.48 0 01-2.867.422c-.961.098-1.926.145-2.895.145-.968 0-1.933-.047-2.894-.145a29.48 29.48 0 01-2.867-.422 30.21 30.21 0 01-2.813-.707 29.01 29.01 0 01-2.726-.976 28.146 28.146 0 01-2.622-1.238 30.112 30.112 0 01-2.488-1.489 28.89 28.89 0 01-4.473-3.676 29.778 29.778 0 01-1.949-2.144 30.393 30.393 0 01-1.726-2.328 30.111 30.111 0 01-2.727-5.106 29.486 29.486 0 01-.976-2.73 30.21 30.21 0 01-.707-2.813 29.48 29.48 0 01-.422-2.867 28.61 28.61 0 01-.145-2.894c0-.97.047-1.934.145-2.895.093-.96.234-1.918.425-2.867.188-.95.422-1.887.704-2.813a29.01 29.01 0 01.976-2.726 29.18 29.18 0 012.73-5.106 28.695 28.695 0 011.727-2.328 28.976 28.976 0 011.945-2.148 28.976 28.976 0 012.149-1.945 29.656 29.656 0 014.813-3.219 29.486 29.486 0 0119.684-2.91 29.22 29.22 0 015.534 1.683 29.108 29.108 0 015.102 2.73 28.695 28.695 0 012.328 1.727c.746.614 1.46 1.262 2.144 1.946a28.649 28.649 0 013.672 4.473c.54.8 1.035 1.628 1.492 2.484.457.851.872 1.722 1.239 2.617a29.44 29.44 0 011.687 5.535 29.669 29.669 0 01.57 5.762zm0 0"/><g clip-path="url(#b)"><path fill="#50c2ee" d="M370.613 325.516l-.781-2.086c-23.168-62.07-25.762-63.832-92.957-63.489l-3.574.02c-66.317.34-69.633 2.473-88.707 57.059l-3.035 8.66c-2.243 6.36-4.297 13.617-.266 19.32 4.035 5.7 11.457 6.172 18.098 6.172h153.414c6.722 0 14.238-.492 18.289-6.309 4.054-5.816 1.867-13.05-.48-19.347zm-17.808 9.886H199.39c-1.961 0-3.34-.074-4.305-.164.242-.972.652-2.36 1.344-4.312l3.05-8.707c8.38-23.965 12.583-36.004 20.442-40.996 8.242-5.25 24.305-5.336 53.46-5.485h3.579c30.125-.164 45.254-.246 53.926 5.676 8.672 5.918 13.82 19.816 24.18 47.566l.78 2.09c.528 1.375.989 2.77 1.376 4.192a43.925 43.925 0 01-4.418.14zm0 0"/></g></svg>