<svg xmlns="http://www.w3.org/2000/svg" width="500" viewBox="0 0 375 375" height="500" version="1.0"><defs><clipPath id="a"><path d="M55 128h90v75H55zm0 0"/></clipPath><clipPath id="b"><path d="M67.832 122.273l82.406 61.997-17.996 23.917-82.406-61.996zm0 0"/></clipPath><clipPath id="c"><path d="M79.79 131.27l58.417 43.949a14.965 14.965 0 11-17.992 23.918l-58.418-43.95a14.97 14.97 0 01-2.965-20.957 14.968 14.968 0 0120.957-2.96zm0 0"/></clipPath><clipPath id="d"><path d="M55 172h90v75H55zm0 0"/></clipPath><clipPath id="e"><path d="M150.164 190.516L67.961 252.78l-18.074-23.86 82.203-62.265zm0 0"/></clipPath><clipPath id="f"><path d="M138.234 199.55l-58.273 44.141a14.96 14.96 0 01-20.965-2.89 14.96 14.96 0 01-2.898-11.082 14.974 14.974 0 015.789-9.887l58.273-44.14a14.975 14.975 0 0120.969 2.894 14.975 14.975 0 012.894 11.082 14.956 14.956 0 01-5.789 9.883zm0 0"/></clipPath><clipPath id="g"><path d="M42.93 172.395h30.41v30.41H42.93zm0 0"/></clipPath><clipPath id="h"><path d="M58.137 172.395c-8.399 0-15.207 6.808-15.207 15.207 0 8.398 6.808 15.203 15.207 15.203 8.394 0 15.203-6.805 15.203-15.203 0-8.399-6.809-15.207-15.203-15.207zm0 0"/></clipPath></defs><g clip-path="url(#a)"><g clip-path="url(#b)"><g clip-path="url(#c)"><path fill="#3c96ba" d="M67.832 122.273l82.313 61.926-17.993 23.918-82.316-61.926zm0 0"/></g></g></g><g clip-path="url(#d)"><g clip-path="url(#e)"><g clip-path="url(#f)"><path fill="#50c2ee" d="M150.164 190.516l-82.11 62.195-18.074-23.86 82.11-62.195zm0 0"/></g></g></g><g clip-path="url(#g)"><g clip-path="url(#h)"><path fill="#96dbf8" d="M42.93 172.395h30.41v30.41H42.93zm0 0"/></g></g><path d="M161.01 183.166h-6.016v-31.843h6.015zm32.353 0h-5.812l-13.64-20.89v20.89h-6.063v-31.843h5.797l13.656 20.953v-20.953h6.062zm24.507-8.218c0 2.742-.953 4.945-2.86 6.609-1.824 1.605-4.124 2.406-6.906 2.406-4.523 0-7.933-2.3-10.234-6.906l5.078-3.063c1.531 2.813 3.29 4.22 5.281 4.22.926 0 1.75-.266 2.47-.798.812-.582 1.218-1.32 1.218-2.218 0-.938-.54-1.97-1.61-3.094-.417-.446-1.324-1.239-2.718-2.375-2.617-2.133-4.39-3.739-5.328-4.813-1.938-2.176-2.907-4.289-2.907-6.343 0-2.333.891-4.27 2.672-5.813 1.688-1.488 3.711-2.234 6.078-2.234 3.188 0 6.254 1.71 9.203 5.125l-4.484 3.968c-1.574-2.195-3.18-3.296-4.812-3.296-.657 0-1.25.18-1.782.53-.617.4-.922.915-.922 1.548 0 .543.18 1.047.547 1.515.5.668 1.977 2.032 4.438 4.094 2.351 1.98 3.754 3.2 4.203 3.656 2.25 2.293 3.375 4.719 3.375 7.282zm27.143-4.641c0 2.625-.094 4.445-.282 5.453-.336 1.836-1.109 3.438-2.328 4.813-2 2.261-4.718 3.39-8.156 3.39-2.074 0-3.969-.46-5.687-1.375-1.856-1.008-3.188-2.41-4-4.203-.743-1.594-1.11-4.285-1.11-8.078v-18.984h6.078v20.609c0 1.418.086 2.45.266 3.094.27 1.086.851 1.89 1.75 2.422.707.449 1.566.671 2.578.671 2.219 0 3.676-.867 4.375-2.609.281-.75.422-2.191.422-4.328v-19.86h6.094zm27.841 12.859h-6.625l-7.156-13.484h-.562v13.484h-6.063v-31.843h6.422c2.832 0 4.91.183 6.234.546 2.157.563 3.785 1.743 4.89 3.532.915 1.46 1.376 3.183 1.376 5.172 0 4.187-2.016 7-6.047 8.437zm-7.36-22.656c0-1.457-.663-2.43-1.983-2.922-.606-.219-1.715-.328-3.329-.328h-1.671v6.516h1.906c1.601 0 2.754-.16 3.453-.485 1.082-.488 1.625-1.414 1.625-2.781zm29.649 22.656h-17.375v-31.843h17.375v5.937h-11.36v5.75h11.36v5.828h-11.36v8.375h11.36zM171.01 214.47c0 2.407-.907 4.45-2.72 6.125-1.761 1.625-3.867 2.438-6.312 2.438-3.95 0-7.152-2.242-9.61-6.734l2.72-1.61c1.894 3.5 4.093 5.25 6.593 5.25 2.363 0 4.082-.914 5.156-2.75a5.17 5.17 0 00.735-2.656c0-1.07-.36-2.117-1.078-3.14-.938-1.344-2.688-2.97-5.25-4.876-2.606-1.925-4.328-3.453-5.172-4.578-1.125-1.52-1.688-3.144-1.688-4.875 0-2.945 1.27-5.113 3.813-6.5 1.195-.644 2.504-.969 3.922-.969 3.03 0 5.812 1.743 8.343 5.22l-2.593 1.968c-.97-1.27-1.793-2.172-2.47-2.703-1.01-.79-2.124-1.188-3.343-1.188-1.23 0-2.258.368-3.078 1.094-.867.75-1.297 1.734-1.297 2.953 0 1.43.672 2.805 2.016 4.125.383.375 1.754 1.438 4.11 3.188 2.163 1.605 3.78 3.047 4.843 4.328 1.57 1.918 2.36 3.883 2.36 5.89zm29.7 7.766h-2.985v-4.047c-2.563 3.106-5.719 4.656-9.469 4.656-3.406 0-6.277-1.226-8.61-3.687-2.312-2.406-3.468-5.328-3.468-8.766 0-3.382 1.176-6.28 3.531-8.687 2.364-2.414 5.242-3.625 8.64-3.625 3.876 0 7 1.648 9.376 4.937v-4.328h2.984zm-2.798-11.64c0-2.696-.886-4.97-2.656-6.813-1.762-1.852-3.984-2.781-6.672-2.781-3.605 0-6.297 1.578-8.078 4.734-.844 1.512-1.265 3.102-1.265 4.766 0 1.68.421 3.273 1.265 4.781.852 1.5 2 2.672 3.438 3.516a8.977 8.977 0 004.625 1.265 9.413 9.413 0 004.703-1.25c1.488-.832 2.633-1.96 3.437-3.39.801-1.426 1.203-3.036 1.203-4.829zm19.309-18.032c-1.117-.476-2.07-.719-2.86-.719-1.218 0-1.952.391-2.202 1.172-.106.313-.157 1.141-.157 2.485v3.187h4.907v2.594h-4.938v20.953h-3.016v-20.953h-3.109v-2.594h3.11v-3.687c0-1.364.093-2.375.28-3.032.282-1.02.868-1.796 1.766-2.328.739-.437 1.633-.656 2.688-.656.976 0 2.156.203 3.531.61zm27.369 18.141h-21.156c.05 2.637.867 4.836 2.453 6.594 1.676 1.843 3.812 2.765 6.406 2.765 2.52 0 4.649-.758 6.39-2.281.79-.695 1.65-1.816 2.579-3.36l2.547 1.344c-1.586 3.106-3.781 5.2-6.594 6.282-1.375.53-2.93.796-4.656.796-3.531 0-6.461-1.164-8.781-3.5-2.313-2.343-3.47-5.28-3.47-8.812 0-2.988.915-5.656 2.75-8 2.321-2.969 5.43-4.453 9.329-4.453 4.008 0 7.21 1.523 9.61 4.562 1.706 2.168 2.57 4.856 2.593 8.063zm-3.328-2.625c-.75-2.988-2.36-5.063-4.828-6.219a9.512 9.512 0 00-4-.875c-2.313 0-4.297.742-5.953 2.219-1.211 1.086-2.125 2.71-2.75 4.875zm24.915 14.156H250.74v-31.844h3.203v28.766h12.234zm8.114-30.734a2.38 2.38 0 01-.75 1.765 2.433 2.433 0 01-1.765.72c-.68 0-1.262-.243-1.75-.735a2.373 2.373 0 01-.735-1.75c0-.696.238-1.29.719-1.782a2.373 2.373 0 011.766-.734c.687 0 1.273.246 1.765.734.5.493.75 1.086.75 1.782zm-.984 30.734h-3.047V198.69h3.047zm26.826 0h-3.015v-11.234c0-2.657-.118-4.469-.344-5.438-.75-3.125-2.73-4.687-5.938-4.687-1.824 0-3.465.605-4.922 1.812-1.449 1.2-2.402 2.7-2.859 4.5-.293 1.149-.437 3.281-.437 6.406v8.641h-3.032V198.69h3.032v4.219c2.406-3.219 5.347-4.828 8.828-4.828 1.718 0 3.265.437 4.64 1.312 1.383.875 2.407 2.086 3.063 3.625.656 1.532.984 3.899.984 7.094zm29.641-11.531h-21.157c.051 2.637.868 4.836 2.453 6.594 1.676 1.843 3.813 2.765 6.407 2.765 2.52 0 4.648-.758 6.39-2.281.79-.695 1.649-1.816 2.578-3.36l2.547 1.344c-1.586 3.106-3.78 5.2-6.593 6.282-1.375.53-2.93.796-4.657.796-3.53 0-6.46-1.164-8.78-3.5-2.313-2.343-3.47-5.28-3.47-8.812 0-2.988.914-5.656 2.75-8 2.32-2.969 5.43-4.453 9.328-4.453 4.008 0 7.211 1.523 9.61 4.562 1.707 2.168 2.57 4.856 2.594 8.063zm-3.329-2.625c-.75-2.988-2.359-5.063-4.828-6.219a9.512 9.512 0 00-4-.875c-2.312 0-4.297.742-5.953 2.219-1.21 1.086-2.125 2.71-2.75 4.875zm0 0"/></svg>