<svg xmlns="http://www.w3.org/2000/svg" width="300" viewBox="0 0 224.88 112.5" height="150" version="1.0"><defs><clipPath id="a"><path d="M13.223 11.445H80V67H13.223zm0 0"/></clipPath><clipPath id="b"><path d="M22.832 7.156l61.703 46.422-13.476 17.91L9.355 25.066zm0 0"/></clipPath><clipPath id="c"><path d="M31.785 13.895L75.527 46.8a11.204 11.204 0 01-5.168 20.05 11.217 11.217 0 01-8.304-2.14L18.313 31.8a11.206 11.206 0 01-2.22-15.692 11.194 11.194 0 017.387-4.355c2.942-.418 5.93.351 8.305 2.14zm0 0"/></clipPath><clipPath id="d"><path d="M13.223 44.39H80v56.157H13.223zm0 0"/></clipPath><clipPath id="e"><path d="M84.48 58.254l-61.55 46.621L9.395 87.012l61.55-46.621zm0 0"/></clipPath><clipPath id="f"><path d="M75.547 65.02L31.914 98.07a11.2 11.2 0 01-15.7-2.164 11.207 11.207 0 012.164-15.7l43.634-33.05a11.216 11.216 0 0115.703 2.164 11.22 11.22 0 012.168 8.301 11.188 11.188 0 01-4.336 7.399zm0 0"/></clipPath><clipPath id="g"><path d="M4.188 44.688h22.769v22.769H4.187zm0 0"/></clipPath><clipPath id="h"><path d="M15.574 44.688c-6.289 0-11.386 5.097-11.386 11.386 0 6.285 5.097 11.383 11.386 11.383 6.285 0 11.383-5.098 11.383-11.383 0-6.289-5.098-11.386-11.383-11.386zm0 0"/></clipPath></defs><g clip-path="url(#a)"><g clip-path="url(#b)"><g clip-path="url(#c)"><path fill="#3c96ba" d="M22.832 7.156l61.633 46.367-13.473 17.91L9.355 25.067zm0 0"/></g></g></g><g clip-path="url(#d)"><g clip-path="url(#e)"><g clip-path="url(#f)"><path fill="#50c2ee" d="M84.48 58.254L23 104.824 9.465 86.961l61.48-46.57zm0 0"/></g></g></g><g clip-path="url(#g)"><g clip-path="url(#h)"><path fill="#96dbf8" d="M4.188 44.688h22.769v22.769H4.187zm0 0"/></g></g><path fill="#fff" d="M88.094 28.906h4.508V52.75h-4.508zm28.73 23.844h-4.351l-10.211-15.64v15.64h-4.543V28.906h4.344l10.222 15.692V28.906h4.54zm18.352-6.152c0 2.054-.715 3.703-2.14 4.949-1.368 1.203-3.09 1.8-5.173 1.8-3.386 0-5.941-1.722-7.664-5.171l3.805-2.293c1.144 2.105 2.46 3.16 3.953 3.16.691 0 1.309-.2 1.848-.598.61-.433.914-.988.914-1.66 0-.703-.406-1.472-1.207-2.316-.313-.332-.992-.926-2.035-1.778-1.961-1.597-3.286-2.8-3.989-3.605-1.453-1.629-2.175-3.211-2.175-4.75 0-1.746.664-3.195 2-4.352 1.261-1.113 2.777-1.672 4.55-1.672 2.387 0 4.684 1.282 6.89 3.836l-3.358 2.973c-1.176-1.644-2.38-2.469-3.602-2.469a2.33 2.33 0 00-1.332.399c-.465.297-.691.683-.691 1.156 0 .406.132.785.41 1.137.375.5 1.48 1.52 3.32 3.062 1.762 1.485 2.813 2.399 3.148 2.739 1.684 1.718 2.528 3.535 2.528 5.453zm20.324-3.477c0 1.969-.07 3.332-.21 4.086a7.328 7.328 0 01-1.743 3.602c-1.5 1.695-3.535 2.539-6.11 2.539-1.55 0-2.972-.344-4.257-1.028-1.39-.758-2.387-1.804-2.996-3.148-.555-1.195-.829-3.211-.829-6.05V28.905h4.551V44.34c0 1.062.063 1.832.2 2.316.199.813.636 1.414 1.308 1.813.527.336 1.172.504 1.93.504 1.66 0 2.754-.649 3.277-1.953.211-.563.316-1.641.316-3.243v-14.87h4.563zm20.844 9.629h-4.957l-5.36-10.094h-.422V52.75h-4.539V28.906h4.809c2.121 0 3.676.14 4.668.41 1.613.422 2.832 1.305 3.66 2.645.688 1.094 1.031 2.383 1.031 3.875 0 3.133-1.507 5.238-4.527 6.316zm-5.508-16.96c0-1.095-.496-1.821-1.488-2.192-.453-.16-1.282-.243-2.493-.243h-1.25v4.88h1.426c1.2 0 2.063-.122 2.586-.364.813-.367 1.219-1.059 1.219-2.082zm22.199 16.96h-13.012V28.906h13.012v4.45h-8.504v4.304h8.504v4.363h-8.504v6.27h8.504zm-92.949 23.441c0 1.801-.676 3.332-2.035 4.586-1.317 1.215-2.895 1.825-4.727 1.825-2.957 0-5.355-1.68-7.195-5.043l2.035-1.204c1.422 2.622 3.066 3.93 4.938 3.93 1.77 0 3.058-.683 3.863-2.058.363-.622.55-1.286.55-1.989 0-.8-.269-1.586-.808-2.351-.703-1.008-2.012-2.223-3.93-3.653-1.953-1.441-3.242-2.586-3.875-3.425-.84-1.137-1.261-2.356-1.261-3.653 0-2.203.949-3.828 2.851-4.867a6.126 6.126 0 012.938-.723c2.27 0 4.351 1.305 6.25 3.907l-1.946 1.472c-.722-.949-1.34-1.625-1.847-2.023-.758-.59-1.59-.887-2.504-.887-.922 0-1.692.274-2.305.817-.648.562-.969 1.3-.969 2.21 0 1.07.5 2.102 1.508 3.09.285.282 1.313 1.078 3.078 2.387 1.621 1.203 2.832 2.281 3.625 3.242 1.176 1.434 1.766 2.906 1.766 4.41zm22.238 5.813h-2.234v-3.027c-1.918 2.324-4.281 3.484-7.09 3.484-2.55 0-4.7-.918-6.445-2.762-1.73-1.8-2.598-3.988-2.598-6.562 0-2.532.883-4.703 2.645-6.504 1.77-1.809 3.925-2.715 6.468-2.715 2.903 0 5.243 1.234 7.02 3.7v-3.243h2.234zm-2.094-8.715c0-2.02-.664-3.719-1.988-5.102-1.32-1.386-2.984-2.082-4.996-2.082-2.7 0-4.715 1.184-6.047 3.547a7.195 7.195 0 000 7.149 7.002 7.002 0 002.574 2.633 6.734 6.734 0 003.461.945 7.06 7.06 0 003.524-.934c1.113-.625 1.969-1.468 2.574-2.539.598-1.07.898-2.273.898-3.617zm14.458-13.499c-.836-.36-1.547-.54-2.141-.54-.91 0-1.461.293-1.649.879-.078.234-.117.851-.117 1.86v2.386h3.676v1.941h-3.7v15.688H128.5V66.316h-2.328v-1.941h2.328v-2.762c0-1.02.07-1.777.21-2.27.212-.761.65-1.343 1.321-1.741.555-.329 1.223-.493 2.016-.493.73 0 1.613.153 2.64.457zm20.496 13.581H139.34c.039 1.977.652 3.621 1.84 4.938 1.254 1.379 2.851 2.07 4.797 2.07 1.886 0 3.48-.567 4.785-1.707.59-.52 1.234-1.36 1.93-2.516l1.906 1.004c-1.188 2.328-2.832 3.895-4.938 4.707-1.031.395-2.195.594-3.484.594-2.645 0-4.84-.871-6.578-2.621-1.73-1.754-2.598-3.953-2.598-6.598 0-2.238.688-4.234 2.063-5.988 1.734-2.223 4.062-3.336 6.984-3.336 3 0 5.398 1.14 7.195 3.418 1.278 1.621 1.922 3.633 1.942 6.035zm-2.493-1.965c-.562-2.238-1.77-3.789-3.617-4.656a7.088 7.088 0 00-2.992-.656c-1.734 0-3.219.554-4.46 1.66-.907.816-1.59 2.031-2.06 3.652zm18.657 10.598h-11.563v-23.84h2.399V79.7h9.164zm6.074-23.012c0 .516-.188.957-.563 1.324a1.82 1.82 0 01-1.32.536c-.512 0-.945-.18-1.312-.547a1.792 1.792 0 01-.551-1.313c0-.52.18-.965.539-1.332.36-.367.8-.55 1.324-.55.512 0 .953.183 1.32.55.375.367.563.813.563 1.332zm-.738 23.012h-2.282V64.375h2.282zm20.086 0h-2.258v-8.41c0-1.989-.086-3.348-.258-4.07-.559-2.34-2.043-3.512-4.445-3.512-1.364 0-2.594.453-3.684 1.36a6.244 6.244 0 00-2.14 3.366c-.22.86-.329 2.457-.329 4.797v6.469h-2.27V64.375h2.27v3.16c1.801-2.41 4.004-3.617 6.61-3.617 1.289 0 2.445.328 3.476.984 1.035.653 1.801 1.559 2.293 2.715.492 1.145.735 2.918.735 5.309zm22.195-8.633h-15.84c.035 1.977.648 3.621 1.836 4.938 1.254 1.379 2.855 2.07 4.797 2.07 1.887 0 3.48-.567 4.785-1.707.59-.52 1.234-1.36 1.93-2.516l1.906 1.004c-1.188 2.328-2.832 3.895-4.938 4.707-1.027.395-2.191.594-3.484.594-2.644 0-4.84-.871-6.574-2.621-1.735-1.754-2.598-3.953-2.598-6.598 0-2.238.684-4.234 2.059-5.988 1.738-2.223 4.066-3.336 6.984-3.336 3 0 5.399 1.14 7.195 3.418 1.278 1.621 1.926 3.633 1.942 6.035zm-2.492-1.965c-.563-2.238-1.766-3.789-3.614-4.656a7.105 7.105 0 00-2.996-.656c-1.73 0-3.218.554-4.457 1.66-.906.816-1.594 2.031-2.058 3.652zm0 0"/></svg>