<svg xmlns="http://www.w3.org/2000/svg" width="300" viewBox="0 0 224.88 112.5" height="150" version="1.0"><defs><clipPath id="a"><path d="M12.344 11.191H80v56.75H12.344zm0 0"/></clipPath><clipPath id="b"><path d="M22.055 6.86l62.351 46.91L70.79 71.867 8.437 24.957zm0 0"/></clipPath><clipPath id="c"><path d="M31.102 13.668L75.3 46.922a11.3 11.3 0 014.406 7.46 11.32 11.32 0 01-9.629 12.797 11.299 11.299 0 01-8.39-2.163l-44.2-33.254a11.316 11.316 0 01-4.406-7.461 11.345 11.345 0 012.16-8.395 11.328 11.328 0 017.469-4.402 11.303 11.303 0 018.39 2.164zm0 0"/></clipPath><clipPath id="d"><path d="M13 44.484h67v56.746H13zm0 0"/></clipPath><clipPath id="e"><path d="M84.348 58.496l-62.196 47.11L8.477 87.554 70.672 40.44zm0 0"/></clipPath><clipPath id="f"><path d="M75.32 65.332L31.23 98.73a11.332 11.332 0 01-8.386 2.192 11.32 11.32 0 01-9.668-12.766 11.326 11.326 0 014.379-7.48l44.093-33.399A11.322 11.322 0 1175.32 65.332zm0 0"/></clipPath><clipPath id="g"><path d="M3.21 44.781h23.01v23.012H3.21zm0 0"/></clipPath><clipPath id="h"><path d="M14.719 44.781c-6.356 0-11.508 5.153-11.508 11.508 0 6.356 5.152 11.504 11.508 11.504 6.351 0 11.5-5.148 11.5-11.504 0-6.355-5.149-11.508-11.5-11.508zm0 0"/></clipPath></defs><g clip-path="url(#a)"><g clip-path="url(#b)"><g clip-path="url(#c)"><path fill="#3c96ba" d="M22.055 6.86l62.277 46.855-13.613 18.097L8.438 24.958zm0 0"/></g></g></g><g clip-path="url(#d)"><g clip-path="url(#e)"><g clip-path="url(#f)"><path fill="#50c2ee" d="M84.348 58.496l-62.125 47.059L8.547 87.5l62.125-47.059zm0 0"/></g></g></g><g clip-path="url(#g)"><g clip-path="url(#h)"><path fill="#96dbf8" d="M3.21 44.781h23.01v23.012H3.21zm0 0"/></g></g><path d="M88.004 28.84h4.55v24.094h-4.55zm29.031 24.094h-4.398l-10.32-15.809v15.809H97.73V28.84h4.383l10.337 15.85V28.84h4.586zm18.543-6.219c0 2.074-.723 3.742-2.164 5-1.379 1.215-3.121 1.82-5.226 1.82-3.422 0-6.004-1.738-7.743-5.222l3.84-2.32c1.16 2.128 2.492 3.194 3.996 3.194.703 0 1.324-.203 1.871-.605.614-.441.922-1 .922-1.68 0-.707-.41-1.488-1.219-2.34-.316-.335-1.003-.937-2.058-1.796-1.98-1.614-3.32-2.828-4.031-3.641-1.465-1.648-2.2-3.246-2.2-4.8 0-1.766.676-3.231 2.024-4.4 1.277-1.124 2.808-1.69 4.597-1.69 2.415 0 4.735 1.296 6.965 3.878l-3.394 3.004c-1.192-1.66-2.406-2.496-3.64-2.496-.497 0-.946.137-1.348.402-.47.301-.7.692-.7 1.172 0 .41.137.793.414 1.145.38.508 1.496 1.539 3.36 3.097 1.777 1.5 2.84 2.422 3.18 2.77 1.703 1.734 2.554 3.57 2.554 5.508zm20.535-3.512c0 1.988-.07 3.363-.21 4.125a7.398 7.398 0 01-1.762 3.645c-1.516 1.71-3.57 2.562-6.172 2.562-1.57 0-3.004-.347-4.305-1.039-1.402-.762-2.41-1.824-3.023-3.18-.563-1.207-.84-3.242-.84-6.113V28.84h4.597v15.594c0 1.074.067 1.851.2 2.34.207.82.644 1.43 1.324 1.831.535.34 1.187.508 1.953.508 1.68 0 2.781-.656 3.309-1.972.214-.567.32-1.66.32-3.274V28.84h4.61zm21.067 9.731h-5.012l-5.414-10.204h-.426v10.204h-4.586V28.84h4.856c2.144 0 3.718.137 4.718.414 1.633.426 2.864 1.316 3.7 2.672.691 1.105 1.043 2.406 1.043 3.914 0 3.168-1.528 5.293-4.579 6.383zm-5.567-17.145c0-1.102-.504-1.836-1.504-2.21-.457-.165-1.297-.247-2.515-.247h-1.266v4.93h1.442c1.21 0 2.085-.121 2.613-.367.82-.368 1.23-1.07 1.23-2.106zm22.434 17.145h-13.149V28.84h13.149v4.492h-8.598v4.352h8.598v4.41h-8.598v6.336h8.598zm-93.926 23.687c0 1.82-.687 3.363-2.058 4.633-1.333 1.23-2.926 1.844-4.774 1.844-2.988 0-5.414-1.696-7.273-5.094l2.058-1.219c1.434 2.649 3.098 3.973 4.989 3.973 1.789 0 3.09-.692 3.902-2.082a3.93 3.93 0 00.555-2.008c0-.813-.274-1.602-.817-2.379-.707-1.016-2.031-2.246-3.973-3.687-1.968-1.457-3.273-2.614-3.91-3.465-.851-1.149-1.277-2.38-1.277-3.688 0-2.23.96-3.867 2.883-4.918a6.157 6.157 0 012.969-.734c2.293 0 4.398 1.32 6.312 3.95l-1.96 1.487c-.735-.957-1.36-1.64-1.872-2.043-.766-.597-1.605-.898-2.527-.898-.934 0-1.711.277-2.328.828-.657.566-.985 1.313-.985 2.234 0 1.083.508 2.122 1.528 3.122.289.28 1.324 1.085 3.109 2.41 1.637 1.215 2.86 2.304 3.664 3.277 1.187 1.45 1.785 2.938 1.785 4.457zm22.473 5.875h-2.258v-3.062c-1.941 2.347-4.328 3.523-7.164 3.523-2.578 0-4.75-.93-6.516-2.789-1.75-1.824-2.625-4.035-2.625-6.633 0-2.562.89-4.754 2.672-6.574 1.79-1.828 3.969-2.742 6.54-2.742 2.929 0 5.296 1.246 7.093 3.734V64.68h2.258zm-2.117-8.808c0-2.04-.672-3.758-2.008-5.157-1.336-1.398-3.016-2.101-5.051-2.101-2.727 0-4.762 1.191-6.113 3.582-.637 1.144-.957 2.343-.957 3.605 0 1.27.32 2.477.957 3.617a7.118 7.118 0 002.601 2.66 6.82 6.82 0 003.5.958 7.12 7.12 0 003.559-.946c1.125-.629 1.992-1.484 2.601-2.566.606-1.078.91-2.297.91-3.653zm14.609-13.645c-.844-.36-1.566-.543-2.164-.543-.922 0-1.477.297-1.664.887-.082.238-.121.863-.121 1.879v2.414h3.715v1.96h-3.739v15.856h-2.281V66.641h-2.352V64.68h2.352v-2.793c0-1.032.07-1.797.215-2.293.21-.77.656-1.36 1.336-1.762.558-.328 1.234-.496 2.031-.496.738 0 1.633.156 2.672.46zm20.707 13.727h-16.004c.035 1.996.656 3.66 1.856 4.988 1.265 1.394 2.882 2.094 4.847 2.094 1.906 0 3.516-.575 4.832-1.727.598-.527 1.25-1.375 1.953-2.543l1.926 1.02c-1.2 2.347-2.86 3.933-4.988 4.75-1.04.402-2.219.605-3.524.605-2.671 0-4.886-.883-6.644-2.648-1.75-1.774-2.625-3.996-2.625-6.668 0-2.262.691-4.282 2.082-6.055 1.754-2.246 4.11-3.367 7.059-3.367 3.03 0 5.453 1.152 7.269 3.449 1.293 1.64 1.945 3.676 1.961 6.102zm-2.516-1.985c-.566-2.262-1.785-3.832-3.652-4.707a7.19 7.19 0 00-3.027-.66c-1.75 0-3.25.559-4.504 1.676-.918.824-1.61 2.054-2.082 3.691zm18.852 10.711h-11.68V58.402h2.422v21.766h9.258zm6.141-23.254c0 .52-.192.965-.57 1.336a1.84 1.84 0 01-1.337.543c-.511 0-.953-.184-1.324-.559a1.792 1.792 0 01-.555-1.32c0-.527.18-.976.543-1.351a1.81 1.81 0 011.336-.555c.52 0 .965.187 1.336.555.38.375.57.824.57 1.351zm-.747 23.254h-2.304V64.68h2.304zm20.297 0h-2.28v-8.5c0-2.012-.09-3.383-.263-4.117-.566-2.363-2.062-3.547-4.492-3.547-1.379 0-2.62.461-3.722 1.375a6.337 6.337 0 00-2.165 3.402c-.222.871-.332 2.485-.332 4.848v6.54h-2.293V64.68h2.293v3.191c1.82-2.437 4.047-3.652 6.68-3.652 1.3 0 2.473.328 3.512.992 1.047.66 1.82 1.578 2.316 2.742.5 1.16.746 2.95.746 5.367zm22.426-8.726h-16.004c.035 1.996.653 3.66 1.856 4.988 1.265 1.394 2.882 2.094 4.847 2.094 1.907 0 3.516-.575 4.832-1.727.598-.527 1.25-1.375 1.953-2.543l1.926 1.02c-1.199 2.347-2.86 3.933-4.988 4.75-1.04.402-2.219.605-3.523.605-2.672 0-4.887-.883-6.645-2.648-1.75-1.774-2.625-3.996-2.625-6.668 0-2.262.691-4.282 2.082-6.055 1.754-2.246 4.11-3.367 7.059-3.367 3.03 0 5.453 1.152 7.27 3.449 1.292 1.64 1.944 3.676 1.96 6.102zm-2.516-1.985c-.566-2.262-1.785-3.832-3.652-4.707a7.19 7.19 0 00-3.027-.66c-1.75 0-3.254.559-4.504 1.676-.918.824-1.61 2.054-2.082 3.691zm0 0"/></svg>