<svg xmlns="http://www.w3.org/2000/svg" width="300" viewBox="0 0 224.88 112.5" height="150" version="1.0"><defs><clipPath id="a"><path d="M13 11.012h67V67H13zm0 0"/></clipPath><clipPath id="b"><path d="M22.215 6.7l62.023 46.663-13.543 18-62.023-46.66zm0 0"/></clipPath><clipPath id="c"><path d="M31.215 13.473L75.184 46.55a11.266 11.266 0 012.23 15.773 11.269 11.269 0 01-15.773 2.227L17.67 31.473A11.267 11.267 0 0115.44 15.7a11.269 11.269 0 0115.774-2.227zm0 0"/></clipPath><clipPath id="d"><path d="M13 44.129h67v56.45H13zm0 0"/></clipPath><clipPath id="e"><path d="M84.184 58.063L22.313 104.93 8.707 86.969l61.871-46.864zm0 0"/></clipPath><clipPath id="f"><path d="M75.203 64.863l-43.86 33.223a11.254 11.254 0 01-15.777-2.176 11.235 11.235 0 01-2.183-8.34 11.282 11.282 0 014.355-7.441l43.864-33.223a11.284 11.284 0 018.34-2.18 11.272 11.272 0 019.62 12.7 11.254 11.254 0 01-4.359 7.437zm0 0"/></clipPath><clipPath id="g"><path d="M3.473 44.426h22.886v22.886H3.473zm0 0"/></clipPath><clipPath id="h"><path d="M14.918 44.426c-6.32 0-11.445 5.125-11.445 11.445s5.125 11.441 11.445 11.441c6.316 0 11.441-5.12 11.441-11.44 0-6.321-5.125-11.446-11.441-11.446zm0 0"/></clipPath></defs><g clip-path="url(#a)"><g clip-path="url(#b)"><g clip-path="url(#c)"><path fill="#fff" d="M22.215 6.7l61.953 46.609-13.543 18.004-61.953-46.61zm0 0"/></g></g></g><g clip-path="url(#d)"><g clip-path="url(#e)"><g clip-path="url(#f)"><path fill="#fff" d="M84.184 58.063l-61.801 46.812L8.777 86.918l61.801-46.813zm0 0"/></g></g></g><g clip-path="url(#g)"><g clip-path="url(#h)"><path fill="#fff" d="M3.473 44.426h22.886v22.886H3.473zm0 0"/></g></g><path fill="#fff" d="M87.816 28.566h4.528v23.965h-4.528zm28.879 23.965h-4.375L102.055 36.81v15.72h-4.563V28.566h4.363l10.278 15.77v-15.77h4.562zm18.445-6.183c0 2.062-.714 3.718-2.152 4.972-1.37 1.207-3.101 1.813-5.195 1.813-3.406 0-5.973-1.735-7.703-5.2l3.82-2.304c1.153 2.117 2.477 3.176 3.977 3.176.695 0 1.316-.2 1.855-.602.613-.437.918-.992.918-1.668 0-.707-.406-1.484-1.21-2.328-.313-.336-.997-.934-2.048-1.789-1.968-1.605-3.304-2.813-4.007-3.621-1.461-1.637-2.188-3.23-2.188-4.777 0-1.754.668-3.211 2.012-4.372 1.27-1.12 2.793-1.683 4.574-1.683 2.398 0 4.707 1.289 6.926 3.86l-3.375 2.984c-1.184-1.653-2.395-2.48-3.621-2.48a2.41 2.41 0 00-1.344.398c-.465.3-.692.687-.692 1.164 0 .41.133.789.41 1.14.376.504 1.489 1.532 3.34 3.082 1.77 1.492 2.825 2.41 3.165 2.754 1.695 1.723 2.539 3.551 2.539 5.48zm20.43-3.496c0 1.976-.07 3.347-.21 4.105a7.327 7.327 0 01-1.755 3.621c-1.503 1.703-3.55 2.555-6.136 2.555-1.563 0-2.989-.348-4.281-1.035-1.399-.758-2.399-1.817-3.012-3.164-.559-1.2-.836-3.227-.836-6.082V28.566h4.578v15.512c0 1.067.062 1.84.2 2.328.202.817.64 1.422 1.316 1.82.53.34 1.18.508 1.941.508 1.668 0 2.766-.652 3.293-1.964.21-.567.316-1.649.316-3.258V28.566h4.586zm20.957 9.679h-4.988l-5.387-10.148h-.422V52.53h-4.562V28.566H166c2.133 0 3.695.137 4.691.41 1.625.422 2.852 1.313 3.684 2.657.688 1.101 1.035 2.398 1.035 3.894 0 3.153-1.52 5.27-4.55 6.352zm-5.539-17.05c0-1.098-.5-1.829-1.496-2.2-.453-.164-1.289-.246-2.504-.246h-1.258v4.903h1.434c1.207 0 2.074-.122 2.602-.364.812-.367 1.222-1.066 1.222-2.094zm22.312 17.05h-13.077V28.566H193.3v4.47h-8.547v4.327h8.547v4.383h-8.547v6.305h8.547zM99.871 76.094c0 1.812-.68 3.347-2.047 4.61-1.324 1.222-2.91 1.835-4.75 1.835-2.972 0-5.383-1.687-7.23-5.07l2.043-1.211c1.425 2.633 3.082 3.953 4.965 3.953 1.777 0 3.07-.691 3.878-2.07a3.902 3.902 0 00.555-2c0-.805-.27-1.594-.812-2.364-.707-1.011-2.024-2.234-3.95-3.672-1.96-1.449-3.257-2.597-3.894-3.445-.848-1.14-1.27-2.367-1.27-3.668 0-2.215.957-3.847 2.868-4.89a6.104 6.104 0 012.953-.73c2.28 0 4.375 1.312 6.28 3.929l-1.952 1.48c-.73-.957-1.348-1.636-1.86-2.035-.761-.594-1.597-.894-2.515-.894-.926 0-1.7.277-2.317.824-.652.562-.976 1.304-.976 2.222 0 1.075.508 2.11 1.52 3.106.285.281 1.316 1.082 3.09 2.398 1.628 1.207 2.847 2.293 3.648 3.258 1.18 1.442 1.773 2.922 1.773 4.434zm22.356 5.844h-2.247V78.89c-1.93 2.34-4.304 3.507-7.128 3.507-2.563 0-4.723-.925-6.48-2.777-1.74-1.812-2.61-4.012-2.61-6.598 0-2.546.886-4.726 2.66-6.539 1.777-1.816 3.945-2.726 6.5-2.726 2.918 0 5.27 1.238 7.058 3.715v-3.258h2.247zm-2.106-8.762c0-2.028-.668-3.739-2-5.125-1.324-1.395-3-2.094-5.02-2.094-2.714 0-4.742 1.188-6.081 3.563a7.241 7.241 0 000 7.183 7.046 7.046 0 002.585 2.649 6.787 6.787 0 003.485.953 7.095 7.095 0 003.539-.942c1.117-.625 1.98-1.476 2.586-2.55.601-1.075.906-2.286.906-3.637zm14.531-13.571c-.84-.359-1.558-.539-2.152-.539-.918 0-1.469.293-1.656.88-.082.238-.117.859-.117 1.87v2.399h3.691v1.953h-3.715v15.77h-2.27v-15.77h-2.34v-1.953h2.34V61.44c0-1.027.07-1.789.212-2.28.21-.77.652-1.356 1.328-1.755.554-.328 1.23-.492 2.023-.492.734 0 1.621.152 2.656.457zm20.602 13.653h-15.926c.04 1.984.652 3.64 1.848 4.965 1.262 1.386 2.87 2.082 4.82 2.082 1.899 0 3.5-.57 4.813-1.72.593-.522 1.238-1.366 1.937-2.526l1.918 1.011c-1.191 2.336-2.844 3.914-4.96 4.727-1.036.398-2.208.601-3.505.601-2.66 0-4.863-.878-6.61-2.636-1.741-1.762-2.612-3.973-2.612-6.633 0-2.25.687-4.258 2.07-6.02 1.746-2.234 4.086-3.351 7.02-3.351 3.019 0 5.43 1.144 7.234 3.433 1.285 1.633 1.933 3.653 1.953 6.067zm-2.508-1.973c-.562-2.25-1.773-3.812-3.633-4.683a7.162 7.162 0 00-3.011-.657c-1.739 0-3.23.559-4.48 1.668-.911.817-1.599 2.043-2.067 3.672zM171.5 81.938h-11.617V57.972h2.41V79.62h9.207zm6.105-23.133c0 .52-.187.96-.562 1.328a1.829 1.829 0 01-1.328.543c-.512 0-.95-.184-1.317-.555a1.783 1.783 0 01-.554-1.316c0-.524.18-.97.543-1.34.355-.367.8-.55 1.328-.55.515 0 .957.183 1.328.55.375.37.562.816.562 1.34zm-.738 23.133h-2.293V64.215h2.293zm20.192 0h-2.27v-8.454c0-2-.09-3.367-.262-4.093-.562-2.352-2.054-3.528-4.468-3.528-1.371 0-2.606.453-3.704 1.364a6.309 6.309 0 00-2.152 3.386c-.219.864-.328 2.469-.328 4.82v6.504h-2.281V64.215h2.281v3.176c1.809-2.422 4.023-3.633 6.645-3.633 1.292 0 2.457.328 3.492.988a5.877 5.877 0 012.304 2.727c.496 1.152.743 2.933.743 5.34zm22.308-8.68h-15.926c.04 1.984.657 3.64 1.848 4.965 1.262 1.386 2.871 2.082 4.82 2.082 1.899 0 3.5-.57 4.813-1.72.594-.522 1.238-1.366 1.941-2.526l1.914 1.011c-1.191 2.336-2.843 3.914-4.96 4.727-1.036.398-2.208.601-3.505.601-2.66 0-4.863-.878-6.609-2.636-1.742-1.762-2.613-3.973-2.613-6.633 0-2.25.687-4.258 2.07-6.02 1.746-2.234 4.086-3.351 7.024-3.351 3.015 0 5.425 1.144 7.23 3.433 1.285 1.633 1.934 3.653 1.953 6.067zm-2.504-1.973c-.566-2.25-1.777-3.812-3.636-4.683a7.158 7.158 0 00-3.008-.657c-1.742 0-3.235.559-4.48 1.668-.915.817-1.602 2.043-2.071 3.672zm0 0"/></svg>